HIERARCHY
ROOT Hips
{
	OFFSET -0.001795 -0.223333 0.028219
	CHANNELS 6 Xposition Yposition Zposition Zrotation Yrotation Xrotation
	JOINT LeftUpLeg
	{
		OFFSET 0.069520 -0.091406 -0.006815
		CHANNELS 3 Zrotation Yrotation Xrotation
		JOINT LeftLeg
		{
			OFFSET 0.034277 -0.375199 -0.004496
			CHANNELS 3 Zrotation Yrotation Xrotation
			JOINT LeftFoot
			{
				OFFSET -0.013596 -0.397961 -0.043693
				CHANNELS 3 Zrotation Yrotation Xrotation
				JOINT LeftToe
				{
					OFFSET 0.026358 -0.055791 0.119288
					CHANNELS 3 Zrotation Yrotation Xrotation
					End Site
					{
						OFFSET 0.000000 0.000000 0.000000
					}
				}
			}
		}
	}
	JOINT RightUpLeg
	{
		OFFSET -0.067670 -0.090522 -0.004320
		CHANNELS 3 Zrotation Yrotation Xrotation
		JOINT RightLeg
		{
			OFFSET -0.038290 -0.382569 -0.008850
			CHANNELS 3 Zrotation Yrotation Xrotation
			JOINT RightFoot
			{
				OFFSET 0.015774 -0.398415 -0.042312
				CHANNELS 3 Zrotation Yrotation Xrotation
				JOINT RightToe
				{
					OFFSET -0.025372 -0.048144 0.123348
					CHANNELS 3 Zrotation Yrotation Xrotation
					End Site
					{
						OFFSET 0.000000 0.000000 0.000000
					}
				}
			}
		}
	}
	JOINT Spine
	{
		OFFSET -0.002533 0.108963 -0.026696
		CHANNELS 3 Zrotation Yrotation Xrotation
		JOINT Spine1
		{
			OFFSET 0.005487 0.135180 0.001092
			CHANNELS 3 Zrotation Yrotation Xrotation
			JOINT Spine2
			{
				OFFSET 0.001457 0.052922 0.025425
				CHANNELS 3 Zrotation Yrotation Xrotation
				JOINT Neck
				{
					OFFSET -0.002778 0.213870 -0.042857
					CHANNELS 3 Zrotation Yrotation Xrotation
					JOINT Head
					{
						OFFSET 0.005152 0.064970 0.051349
						CHANNELS 3 Zrotation Yrotation Xrotation
						End Site
						{
							OFFSET 0.000000 0.000000 0.000000
						}
					}
				}
				JOINT LeftShoulder
				{
					OFFSET 0.078845 0.121749 -0.034090
					CHANNELS 3 Zrotation Yrotation Xrotation
					JOINT LeftArm
					{
						OFFSET 0.090977 0.030469 -0.008868
						CHANNELS 3 Zrotation Yrotation Xrotation
						JOINT LeftForeArm
						{
							OFFSET 0.259612 -0.012772 -0.027456
							CHANNELS 3 Zrotation Yrotation Xrotation
							JOINT LeftHand
							{
								OFFSET 0.249234 0.008986 -0.001171
								CHANNELS 3 Zrotation Yrotation Xrotation
								End Site
								{
									OFFSET 0.000000 0.000000 0.000000
								}
							}
						}
					}
				}
				JOINT RightShoulder
				{
					OFFSET -0.081759 0.118833 -0.038615
					CHANNELS 3 Zrotation Yrotation Xrotation
					JOINT RightArm
					{
						OFFSET -0.096012 0.032551 -0.009143
						CHANNELS 3 Zrotation Yrotation Xrotation
						JOINT RightForeArm
						{
							OFFSET -0.253742 -0.013329 -0.021401
							CHANNELS 3 Zrotation Yrotation Xrotation
							JOINT RightHand
							{
								OFFSET -0.255298 0.007772 -0.005559
								CHANNELS 3 Zrotation Yrotation Xrotation
								End Site
								{
									OFFSET 0.000000 0.000000 0.000000
								}
							}
						}
					}
				}
			}
		}
	}
}
MOTION
Frames: 5
Frame Time: 0.050000
0.184209 0.802993 0.448625 -4.869794 22.877227 -6.919911 14.972404 -1.251061 1.155028 -24.441441 5.621448 66.032108 10.403431 21.148111 17.635936 0.000000 0.000000 0.000000 -2.540884 -0.644074 -40.926469 11.973935 -9.808132 43.990947 -11.513689 -24.422020 6.488812 0.000000 0.000000 0.000000 4.926396 -3.864147 26.563826 4.881460 -0.031822 -27.645383 -1.910642 -14.116480 21.570402 -9.179707 6.459050 -28.452646 0.000000 0.000000 0.000000 -15.800604 -15.449941 6.870861 -39.023103 -39.640864 6.400680 13.356593 -51.953612 -3.666839 0.000000 0.000000 0.000000 13.363303 11.713226 4.792494 42.928509 12.604138 -1.662453 -38.647363 54.183618 -16.877892 0.000000 0.000000 0.000000
0.208646 0.803083 0.499099 -4.282405 20.401938 -8.017363 16.837790 -0.622486 -11.401047 -30.090201 12.492581 76.611445 15.460828 27.790996 17.005971 0.000000 0.000000 0.000000 -2.058223 0.193283 -38.409484 10.339641 -9.721801 49.526129 -10.293618 -23.362279 1.248000 0.000000 0.000000 0.000000 3.626879 -3.668678 28.244611 5.081289 -0.130579 -27.652150 -0.622508 -10.927971 22.438299 -7.772014 6.002066 -28.104933 0.000000 0.000000 0.000000 -17.694152 -16.474259 7.210217 -36.008827 -38.636227 5.300179 14.080790 -45.312227 -3.768782 0.000000 0.000000 0.000000 11.940107 15.333479 6.634134 40.976206 20.178140 0.712153 -39.008130 47.894946 -14.480939 0.000000 0.000000 0.000000
0.235415 0.811883 0.544696 -2.848326 18.735527 -8.472384 18.318494 -0.315240 -22.176702 -29.701760 13.696629 77.206969 16.604148 31.071842 8.266434 0.000000 0.000000 0.000000 -3.516112 0.140162 -34.445919 9.701801 -9.450054 51.510655 -9.216330 -21.696110 -1.715038 0.000000 0.000000 0.000000 1.806357 -3.248799 29.418937 4.713961 -0.108863 -26.356012 0.645680 -7.208086 22.116060 -6.428478 5.718572 -26.921327 0.000000 0.000000 0.000000 -18.499976 -17.550395 7.181181 -35.168567 -37.421571 4.870201 16.512335 -40.529924 -4.524695 0.000000 0.000000 0.000000 10.750625 16.900954 7.549418 39.315839 25.687287 2.376428 -43.468165 45.153239 -14.980918 0.000000 0.000000 0.000000
0.265189 0.826984 0.587475 -1.189898 15.180396 -8.774138 19.746275 0.293578 -27.303511 -27.016589 11.471455 65.945916 14.250892 29.546529 -5.987603 0.000000 0.000000 0.000000 -4.716287 0.362604 -29.944720 8.667827 -7.679452 51.518003 -7.788982 -18.665168 -2.838404 0.000000 0.000000 0.000000 0.099722 -2.490682 29.467353 4.509763 -0.138932 -26.147898 0.951775 -2.435704 23.522006 -4.495598 5.109835 -24.615107 0.000000 0.000000 0.000000 -20.420597 -18.165157 6.926552 -33.471605 -35.514047 4.072763 18.866950 -37.998231 -5.307193 0.000000 0.000000 0.000000 10.049021 18.845009 8.650532 37.686257 31.701273 4.060867 -47.667835 40.878342 -14.447438 0.000000 0.000000 0.000000
0.297224 0.842040 0.628693 -0.095800 12.057552 -7.840243 19.606883 0.659309 -27.968248 -18.523618 5.231606 46.020046 10.748868 21.235094 -7.406773 0.000000 0.000000 0.000000 -6.175957 0.309745 -27.055094 7.798835 -5.991808 50.748455 -6.533207 -15.706426 -2.205070 0.000000 0.000000 0.000000 -0.367796 -1.982567 28.357597 3.204050 0.110456 -25.795389 0.766509 0.284222 23.378215 -2.700603 4.192037 -23.558565 0.000000 0.000000 0.000000 -20.510103 -16.373268 5.689349 -34.582321 -32.711036 3.577404 19.759440 -39.510366 -5.965290 0.000000 0.000000 0.000000 7.441759 19.866448 8.619556 37.292883 34.107687 5.008414 -51.879628 42.026263 -16.413761 0.000000 0.000000 0.000000
